<svg xmlns="http://www.w3.org/2000/svg" viewBox="0 0 180 39.726"><g fill="#fff" data-name="Grupo 3001"><path d="m75.136 31.289-1.584 4.426a6.7 6.7 0 0 0-1.471-.225H57.736v-.3a3.518 3.518 0 0 0 .685-2.044v-21.79a3.441 3.441 0 0 0-.685-2.044v-.3h4.235v.3a4.37 4.37 0 0 0-.685 2.044v22.015h8.626a6.73 6.73 0 0 0 5.066-2.19Z" data-name="Caminho 22613"/><path d="m103.726 31.288-1.587 4.425a6.7 6.7 0 0 0-1.471-.225H86.339v-.3a3.518 3.518 0 0 0 .685-2.044V11.352a3.441 3.441 0 0 0-.685-2.044v-.3h13.107a5.15 5.15 0 0 0 2.078-.27h.146v4.358h-.146c-.719-1.516-1.55-1.966-3.785-1.966h-7.85v8.019h7.626a2.673 2.673 0 0 0 1.325-.337h.146v3.066h-.147a5.36 5.36 0 0 0-2.269-.607h-6.681v12.1h8.626a6.729 6.729 0 0 0 5.065-2.19Z" data-name="Caminho 22614"/><path d="m180 31.288-1.587 4.425a6.7 6.7 0 0 0-1.471-.225h-14.329v-.3a3.518 3.518 0 0 0 .685-2.044V11.352a3.441 3.441 0 0 0-.685-2.044v-.3h13.107a5.15 5.15 0 0 0 2.078-.27h.146v4.358h-.146c-.719-1.516-1.55-1.966-3.785-1.966h-7.85v8.019h7.626a2.673 2.673 0 0 0 1.325-.337h.146v3.066h-.147a5.36 5.36 0 0 0-2.269-.607h-6.681v12.1h8.626a6.729 6.729 0 0 0 5.065-2.19Z" data-name="Caminho 22615"/><path d="M146.458 30.49a8.63 8.63 0 0 0 1.325 4.695v.3h-4.762a8.465 8.465 0 0 0 .494-4.392l-1.168-18.982-10.479 23.744h-.3l-10.131-23.822-1.247 19.06a8.486 8.486 0 0 0 .494 4.392h-4.126v-.3a8.726 8.726 0 0 0 1.325-4.695l1.325-19.139a2.3 2.3 0 0 0-.831-2.044v-.3h4.919l8.884 20.992 9.154-20.992h4.65v.3a2.291 2.291 0 0 0-.831 2.044Z" data-name="Caminho 22616"/><path d="M101.7 3.212v1.555H86.339V3.212Z" data-name="Caminho 22624"/></g><g data-name="Grupo 3002"><path fill="#fff" d="M19.069 0h1.589v15.361h-1.589Z" data-name="Caminho 22622"/><path fill="#fff" d="M24.366 19.069h15.361v1.589H24.366Z" data-name="Caminho 22617"/><path fill="#fff" d="M0 19.069h15.361v1.589H0Z" data-name="Caminho 22618"/><path fill="#fff" d="M19.069 24.366h1.589v15.361h-1.589Z" data-name="Caminho 22623"/><path fill="#fff" d="M15.358 16.483 5.253 6.378l1.124-1.121 10.1 10.107h-1.119v1.119Z" data-name="Caminho 22619"/><path fill="#e5695b" d="m33.34640732 5.25640732-28.09052398 28.090524L6.379476 34.47052398 34.47 6.38Z" data-name="Caminho 22620"/><path fill="#fff" d="m33.347 34.468-10.1-10.1h1.124v-1.125l10.1 10.1-1.124 1.125Z" data-name="Caminho 22621"/></g></svg>